# xmcd CD database file
#
# Track frame offsets:
#	150
#	13835
#	31685
#	55130
#	76567
#	105602
#	127665
#	161615
#	175930
#	200830
#	225777
#	253002
#
# Disc length: 3537 seconds
#
# Revision: 0
# Processed by: cddbd v1.5.1PL2 Copyright (c) Steve Scherf et al.
# Submitted via: CDex 1.51
#
DISCID=840dcf0c
DTITLE=Various Artist - Imps Music Collection #3
DYEAR=1900
DGENRE=Jazz
TTITLE0=Ornithology/Charlie Parker
TTITLE1=Well, You Needn't/Steve turre
TTITLE2=One for Hamp/Khan Jamal and Byrd Lancaster
TTITLE3=Luck Be a Lady/Michael Hashim
TTITLE4=Manhattan Projections/Alan Jaffe
TTITLE5=Oh' Lady Be good/Earl Hines
TTITLE6=Rifftide/Roy Eldridge and Coleman Hawkins
TTITLE7=Topsy/The Wide Spread Depression Orchestra
TTITLE8=Archives/Michael Musillami
TTITLE9=Esta Por Ver/Angelo Di Pippo
TTITLE10=The Scorpian/Andy Jaffe
TTITLE11=Carvin' The Bird/Charlie Parker
EXTD=
EXTT0=
EXTT1=
EXTT2=
EXTT3=
EXTT4=
EXTT5=
EXTT6=
EXTT7=
EXTT8=
EXTT9=
EXTT10=
EXTT11=
PLAYORDER=
